<svg width="3300" height="2200" viewBox="0 0 3300 2200" fill="none" xmlns="http://www.w3.org/2000/svg">
<g id="location" clip-path="url(#clip0_221_360)">
<g id="Notes">
<path id="artboard" d="M3300 0H0V2200H3300V0Z" fill="white"/>
<path id="Vector" d="M263 292H3036" stroke="black" stroke-width="0.5"/>
<text id="Weight/Scale Variations" fill="black" xml:space="preserve" style="white-space: pre" font-family="Inter" font-size="13" font-weight="bold" letter-spacing="0em"><tspan x="263" y="321.727">Weight/Scale Variations</tspan></text>
<text id="Ultralight" fill="black" xml:space="preserve" style="white-space: pre" font-family="Inter" font-size="13" letter-spacing="0em"><tspan x="531.211" y="321.727">Ultralight</tspan></text>
<text id="Thin" fill="black" xml:space="preserve" style="white-space: pre" font-family="Inter" font-size="13" letter-spacing="0em"><tspan x="842.922" y="321.727">Thin</tspan></text>
<text id="Light" fill="black" xml:space="preserve" style="white-space: pre" font-family="Inter" font-size="13" letter-spacing="0em"><tspan x="1137.63" y="321.727">Light</tspan></text>
<text id="Regular" fill="black" xml:space="preserve" style="white-space: pre" font-family="Inter" font-size="13" letter-spacing="0em"><tspan x="1426.34" y="321.727">Regular</tspan></text>
<text id="Medium" fill="black" xml:space="preserve" style="white-space: pre" font-family="Inter" font-size="13" letter-spacing="0em"><tspan x="1721.56" y="321.727">Medium</tspan></text>
<text id="Semibold" fill="black" xml:space="preserve" style="white-space: pre" font-family="Inter" font-size="13" letter-spacing="0em"><tspan x="2014.27" y="321.727">Semibold</tspan></text>
<text id="Bold" fill="black" xml:space="preserve" style="white-space: pre" font-family="Inter" font-size="13" letter-spacing="0em"><tspan x="2325.98" y="321.727">Bold</tspan></text>
<text id="Heavy" fill="black" xml:space="preserve" style="white-space: pre" font-family="Inter" font-size="13" letter-spacing="0em"><tspan x="2617.19" y="321.727">Heavy</tspan></text>
<text id="Black" fill="black" xml:space="preserve" style="white-space: pre" font-family="Inter" font-size="13" letter-spacing="0em"><tspan x="2916.4" y="321.727">Black</tspan></text>
<path id="Vector_2" d="M263 1903H3036" stroke="black" stroke-width="0.5"/>
<g id="Group">
<path id="Vector_3" d="M272.248 1933.83C276.555 1933.83 280.139 1930.26 280.139 1925.95C280.139 1921.64 276.545 1918.07 272.238 1918.07C267.941 1918.07 264.367 1921.64 264.367 1925.95C264.367 1930.26 267.951 1933.83 272.248 1933.83ZM272.248 1932.35C268.703 1932.35 265.871 1929.5 265.871 1925.95C265.871 1922.39 268.693 1919.55 272.238 1919.55C275.793 1919.55 278.644 1922.39 278.644 1925.95C278.644 1929.5 275.803 1932.35 272.248 1932.35ZM268.654 1925.95C268.654 1926.38 268.957 1926.67 269.406 1926.67H271.506V1928.79C271.506 1929.23 271.799 1929.53 272.229 1929.53C272.678 1929.53 272.971 1929.23 272.971 1928.79V1926.67H275.09C275.529 1926.67 275.832 1926.38 275.832 1925.95C275.832 1925.51 275.529 1925.21 275.09 1925.21H272.971V1923.1C272.971 1922.65 272.678 1922.35 272.229 1922.35C271.799 1922.35 271.506 1922.65 271.506 1923.1V1925.21H269.406C268.957 1925.21 268.654 1925.51 268.654 1925.95Z" fill="black"/>
</g>
<g id="Group_2">
<path id="Vector_4" d="M293.576 1935.91C299.025 1935.91 303.537 1931.39 303.537 1925.95C303.537 1920.5 299.015 1915.99 293.566 1915.99C288.127 1915.99 283.615 1920.5 283.615 1925.95C283.615 1931.39 288.137 1935.91 293.576 1935.91ZM293.576 1934.25C288.967 1934.25 285.285 1930.56 285.285 1925.95C285.285 1921.34 288.957 1917.65 293.566 1917.65C298.176 1917.65 301.877 1921.34 301.877 1925.95C301.877 1930.56 298.185 1934.25 293.576 1934.25ZM289.045 1925.95C289.045 1926.43 289.377 1926.75 289.875 1926.75H292.746V1929.63C292.746 1930.12 293.078 1930.46 293.557 1930.46C294.045 1930.46 294.387 1930.13 294.387 1929.63V1926.75H297.267C297.756 1926.75 298.098 1926.43 298.098 1925.95C298.098 1925.46 297.756 1925.12 297.267 1925.12H294.387V1922.25C294.387 1921.75 294.045 1921.41 293.557 1921.41C293.078 1921.41 292.746 1921.75 292.746 1922.25V1925.12H289.875C289.377 1925.12 289.045 1925.46 289.045 1925.95Z" fill="black"/>
</g>
<g id="Group_3">
<path id="Vector_5" d="M320.617 1938.66C327.58 1938.66 333.341 1932.9 333.341 1925.95C333.341 1918.99 327.57 1913.22 320.607 1913.22C313.654 1913.22 307.902 1918.99 307.902 1925.95C307.902 1932.9 313.664 1938.66 320.617 1938.66ZM320.617 1936.85C314.582 1936.85 309.728 1931.98 309.728 1925.95C309.728 1919.9 314.572 1915.05 320.607 1915.05C326.652 1915.05 331.515 1919.9 331.515 1925.95C331.515 1931.98 326.662 1936.85 320.617 1936.85ZM314.845 1925.95C314.845 1926.47 315.216 1926.83 315.763 1926.83H319.708V1930.78C319.708 1931.32 320.08 1931.7 320.597 1931.7C321.134 1931.7 321.505 1931.33 321.505 1930.78V1926.83H325.46C325.998 1926.83 326.378 1926.47 326.378 1925.95C326.378 1925.4 326.007 1925.03 325.46 1925.03H321.505V1921.09C321.505 1920.54 321.134 1920.16 320.597 1920.16C320.08 1920.16 319.708 1920.54 319.708 1921.09V1925.03H315.763C315.216 1925.03 314.845 1925.4 314.845 1925.95Z" fill="black"/>
</g>
<text id="Design Variations" fill="black" xml:space="preserve" style="white-space: pre" font-family="Inter" font-size="13" font-weight="bold" letter-spacing="0em"><tspan x="263" y="1952.73">Design Variations</tspan></text>
<text id="Symbols are supported in up to nine weights and three scales." fill="black" xml:space="preserve" style="white-space: pre" font-family="Inter" font-size="13" letter-spacing="0em"><tspan x="263" y="1970.73">Symbols are supported in up to nine weights and three scales.</tspan></text>
<text id="For optimal layout with text and other symbols, vertically align" fill="black" xml:space="preserve" style="white-space: pre" font-family="Inter" font-size="13" letter-spacing="0em"><tspan x="263" y="1988.73">For optimal layout with text and other symbols, vertically align</tspan></text>
<text id="symbols with the adjacent text." fill="black" xml:space="preserve" style="white-space: pre" font-family="Inter" font-size="13" letter-spacing="0em"><tspan x="263" y="2006.73">symbols with the adjacent text.</tspan></text>
<path id="Vector_6" d="M776 1919V1933" stroke="#00AEEF" stroke-width="0.5"/>
<g id="Group_4">
<path id="Vector_7" d="M779.311 1933.16C779.828 1933.16 780.082 1932.96 780.268 1932.41L781.527 1928.97H787.289L788.549 1932.41C788.734 1932.96 788.988 1933.16 789.496 1933.16C790.014 1933.16 790.346 1932.84 790.346 1932.36C790.346 1932.19 790.316 1932.03 790.238 1931.83L785.658 1919.63C785.434 1919.04 785.033 1918.73 784.408 1918.73C783.803 1918.73 783.393 1919.03 783.178 1919.62L778.598 1931.84C778.52 1932.04 778.49 1932.2 778.49 1932.37C778.49 1932.85 778.803 1933.16 779.311 1933.16ZM782.006 1927.48L784.379 1920.91H784.428L786.801 1927.48H782.006Z" fill="black"/>
</g>
<path id="Vector_8" d="M793.197 1919V1933" stroke="#00AEEF" stroke-width="0.5"/>
<text id="Margins" fill="black" xml:space="preserve" style="white-space: pre" font-family="Inter" font-size="13" font-weight="bold" letter-spacing="0em"><tspan x="776" y="1952.73">Margins</tspan></text>
<text id="Leading and trailing margins on the left and right side of each symbol" fill="black" xml:space="preserve" style="white-space: pre" font-family="Inter" font-size="13" letter-spacing="0em"><tspan x="776" y="1970.73">Leading and trailing margins on the left and right side of each symbol</tspan></text>
<text id="can be adjusted by modifying the x-location of the margin guidelines." fill="black" xml:space="preserve" style="white-space: pre" font-family="Inter" font-size="13" letter-spacing="0em"><tspan x="776" y="1988.73">can be adjusted by modifying the x-location of the margin guidelines.</tspan></text>
<text id="Modifications are automatically applied proportionally to all" fill="black" xml:space="preserve" style="white-space: pre" font-family="Inter" font-size="13" letter-spacing="0em"><tspan x="776" y="2006.73">Modifications are automatically applied proportionally to all</tspan></text>
<text id="scales and weights." fill="black" xml:space="preserve" style="white-space: pre" font-family="Inter" font-size="13" letter-spacing="0em"><tspan x="776" y="2024.73">scales and weights.</tspan></text>
<g id="Group_5">
<path id="Vector_9" d="M1291.84 1934.87L1293.54 1936.57C1294.4 1937.44 1295.39 1937.38 1296.31 1936.36L1307.01 1924.57L1306.04 1923.6L1295.43 1935.28C1295.07 1935.68 1294.74 1935.77 1294.27 1935.3L1293.1 1934.14C1292.63 1933.68 1292.74 1933.34 1293.14 1932.98L1304.62 1922.18L1303.64 1921.21L1292.05 1932.1C1291.06 1933.02 1290.98 1934 1291.84 1934.87ZM1298.26 1916.67C1297.84 1917.08 1297.81 1917.66 1298.04 1918.05C1298.28 1918.41 1298.74 1918.64 1299.38 1918.48C1300.85 1918.14 1302.37 1918.08 1303.79 1919.02L1303.21 1920.47C1302.87 1921.3 1303.04 1921.89 1303.58 1922.43L1305.88 1924.75C1306.36 1925.24 1306.77 1925.26 1307.34 1925.16L1308.4 1924.96L1309.07 1925.64L1309.03 1926.19C1308.99 1926.69 1309.12 1927.07 1309.61 1927.55L1310.37 1928.29C1310.85 1928.77 1311.46 1928.8 1311.93 1928.33L1314.84 1925.41C1315.31 1924.94 1315.29 1924.35 1314.81 1923.87L1314.04 1923.11C1313.56 1922.63 1313.19 1922.47 1312.71 1922.51L1312.13 1922.56L1311.49 1921.93L1311.73 1920.8C1311.86 1920.24 1311.71 1919.8 1311.12 1919.21L1308.92 1917.02C1305.58 1913.7 1301.15 1913.78 1298.26 1916.67ZM1299.75 1917.04C1302.18 1915.27 1305.47 1915.57 1307.7 1917.8L1310.13 1920.21C1310.37 1920.44 1310.41 1920.63 1310.34 1920.97L1310.02 1922.45L1311.52 1923.94L1312.51 1923.88C1312.76 1923.87 1312.84 1923.89 1313.03 1924.08L1313.61 1924.66L1311.17 1927.1L1310.59 1926.53C1310.4 1926.33 1310.37 1926.25 1310.38 1925.99L1310.45 1925.01L1308.95 1923.53L1307.43 1923.78C1307.11 1923.85 1306.96 1923.82 1306.71 1923.59L1304.71 1921.58C1304.46 1921.35 1304.43 1921.18 1304.59 1920.81L1305.46 1918.72C1303.9 1917.27 1301.87 1916.64 1299.84 1917.24C1299.68 1917.28 1299.63 1917.15 1299.75 1917.04Z" fill="black"/>
</g>
<text id="Exporting" fill="black" xml:space="preserve" style="white-space: pre" font-family="Inter" font-size="13" font-weight="bold" letter-spacing="0em"><tspan x="1289" y="1952.73">Exporting</tspan></text>
<text id="Symbols should be outlined when exporting to ensure the" fill="black" xml:space="preserve" style="white-space: pre" font-family="Inter" font-size="13" letter-spacing="0em"><tspan x="1289" y="1970.73">Symbols should be outlined when exporting to ensure the</tspan></text>
<text id="design is preserved when submitting to Xcode." fill="black" xml:space="preserve" style="white-space: pre" font-family="Inter" font-size="13" letter-spacing="0em"><tspan x="1289" y="1988.73">design is preserved when submitting to Xcode.</tspan></text>
<text id="template-version" fill="black" xml:space="preserve" style="white-space: pre" font-family="Inter" font-size="13" letter-spacing="0em"><tspan x="2945" y="1932.73">Template v.4.0</tspan></text>
<text id="Requires Xcode 14 or greater" fill="black" xml:space="preserve" style="white-space: pre" font-family="Inter" font-size="13" letter-spacing="0em"><tspan x="2857" y="1950.73">Requires Xcode 14 or greater</tspan></text>
<text id="descriptive-name" fill="black" xml:space="preserve" style="white-space: pre" font-family="Inter" font-size="13" letter-spacing="0em"><tspan x="2898" y="1968.73">Generated from house</tspan></text>
<text id="Typeset at 100 points" fill="black" xml:space="preserve" style="white-space: pre" font-family="Inter" font-size="13" letter-spacing="0em"><tspan x="2903" y="1986.73">Typeset at 100 points</tspan></text>
<text id="Small" fill="black" xml:space="preserve" style="white-space: pre" font-family="Inter" font-size="13" letter-spacing="0em"><tspan x="263" y="725.727">Small</tspan></text>
<text id="Medium_2" fill="black" xml:space="preserve" style="white-space: pre" font-family="Inter" font-size="13" letter-spacing="0em"><tspan x="263" y="1155.73">Medium</tspan></text>
<text id="Large" fill="black" xml:space="preserve" style="white-space: pre" font-family="Inter" font-size="13" letter-spacing="0em"><tspan x="263" y="1585.73">Large</tspan></text>
</g>
<g id="Guides">
<g id="H-reference">
<path id="Vector_10" d="M339.994 696H342.638L368.328 628.868H369.03V625.541H367.123L339.994 696ZM350.688 671.52H385.981L385.231 669.272H351.438L350.688 671.52ZM394.12 696H396.764L369.638 625.541H368.433V628.868L394.12 696Z" fill="#27AAE1"/>
</g>
<path id="Baseline-S" d="M263 696H3036" stroke="#27AAE1" stroke-width="0.5"/>
<path id="Capline-S" d="M263 625.541H3036" stroke="#27AAE1" stroke-width="0.5"/>
<g id="H-reference_2">
<path id="Vector_11" d="M339.994 1126H342.638L368.328 1058.87H369.03V1055.54H367.123L339.994 1126ZM350.688 1101.52H385.981L385.231 1099.27H351.438L350.688 1101.52ZM394.12 1126H396.764L369.638 1055.54H368.433V1058.87L394.12 1126Z" fill="#27AAE1"/>
</g>
<path id="Baseline-M" d="M263 1126H3036" stroke="#27AAE1" stroke-width="0.5"/>
<path id="Capline-M" d="M263 1055.54H3036" stroke="#27AAE1" stroke-width="0.5"/>
<g id="H-reference_3">
<path id="Vector_12" d="M339.994 1556H342.638L368.328 1488.87H369.03V1485.54H367.123L339.994 1556ZM350.688 1531.52H385.981L385.231 1529.27H351.438L350.688 1531.52ZM394.12 1556H396.764L369.638 1485.54H368.433V1488.87L394.12 1556Z" fill="#27AAE1"/>
</g>
<path id="Baseline-L" d="M263 1556H3036" stroke="#27AAE1" stroke-width="0.5"/>
<path id="Capline-L" d="M263 1485.54H3036" stroke="#27AAE1" stroke-width="0.5"/>
<path id="left-margin-Ultralight-S" d="M508.561 600.785V720.121" stroke="#00AEEF" stroke-width="0.5"/>
<path id="right-margin-Ultralight-S" d="M610.861 600.785V720.121" stroke="#00AEEF" stroke-width="0.5"/>
<path id="left-margin-Regular-S" d="M1393.47 600.785V720.121" stroke="#00AEEF" stroke-width="0.5"/>
<path id="right-margin-Regular-S" d="M1506.22 600.785V720.121" stroke="#00AEEF" stroke-width="0.5"/>
<path id="left-margin-Black-S" d="M2871.88 600.785V720.121" stroke="#00AEEF" stroke-width="0.5"/>
<path id="right-margin-Black-S" d="M2994.92 600.785V720.121" stroke="#00AEEF" stroke-width="0.5"/>
</g>
<g id="Symbols">
<g id="Black-S">
<path id="Vector_13" fill-rule="evenodd" clip-rule="evenodd" d="M2925.94 630.44C2918.96 630.739 2915.16 632.78 2911.54 638.174C2910.01 640.455 2905.6 648.026 2903.89 651.29C2900.43 657.928 2900.43 662.072 2903.89 668.71C2905.6 671.974 2910.01 679.545 2911.54 681.826C2915.03 687.025 2918.63 689.08 2925.01 689.518C2927.13 689.663 2938.87 689.663 2940.99 689.518C2947.37 689.08 2950.97 687.025 2954.46 681.826C2955.99 679.545 2960.4 671.974 2962.11 668.71C2965.57 662.072 2965.57 657.928 2962.11 651.29C2960.4 648.026 2955.99 640.455 2954.46 638.174C2951.67 634.018 2948.64 631.813 2944.55 630.954C2942.47 630.516 2941.42 630.464 2934.11 630.432C2930.13 630.414 2926.45 630.418 2925.94 630.44ZM2942.31 634.38C2946.41 634.931 2948.69 636.389 2951.18 640.033C2952.56 642.056 2956.94 649.55 2958.7 652.883C2960.32 655.956 2960.88 657.803 2960.88 660C2960.88 662.198 2960.32 664.044 2958.7 667.117C2956.91 670.509 2952.56 677.945 2951.18 679.967C2948.72 683.575 2946.55 684.979 2942.42 685.633C2941.25 685.819 2940.22 685.842 2933 685.842C2925.78 685.842 2924.75 685.819 2923.58 685.633C2920.2 685.097 2918.23 684.098 2916.37 681.972C2914.93 680.324 2913.51 678.088 2909.9 671.783C2905.89 664.783 2905.12 662.878 2905.12 660C2905.12 657.122 2905.89 655.217 2909.9 648.217C2915.33 638.741 2916.66 636.992 2919.52 635.566C2922.13 634.269 2923.89 634.101 2934.22 634.162C2939.45 634.193 2941.29 634.242 2942.31 634.38ZM2938.22 649.043C2937.84 649.133 2933.49 650.885 2930.08 652.325C2928.11 653.159 2926.9 654.129 2926.03 655.581C2925.64 656.245 2922.39 664.047 2922.09 665.051C2921.21 668.009 2923.56 671.077 2926.71 671.082C2927.66 671.084 2927.77 671.045 2932.77 668.991C2937.07 667.221 2937.71 666.901 2938.66 666.04C2939.68 665.119 2940.14 664.248 2941.99 659.756C2943.95 654.996 2944.08 654.621 2944.08 653.708C2944.07 650.639 2941.19 648.343 2938.22 649.043ZM2940.01 652.991C2940.2 653.179 2940.35 653.456 2940.35 653.607C2940.35 653.939 2937.06 661.962 2936.68 662.555C2936.36 663.04 2935.94 663.454 2935.45 663.768C2934.91 664.101 2926.9 667.35 2926.61 667.35C2926.25 667.35 2925.65 666.751 2925.65 666.386C2925.65 666.047 2928.91 658.084 2929.31 657.456C2929.64 656.938 2930.22 656.409 2930.79 656.114C2931.76 655.609 2939.04 652.667 2939.34 652.659C2939.55 652.653 2939.78 652.766 2940.01 652.991Z" fill="black"/>
</g>
<g id="Regular-S">
<path id="Vector_14" fill-rule="evenodd" clip-rule="evenodd" d="M1442.94 630.44C1435.96 630.739 1432.16 632.78 1428.54 638.174C1427.01 640.455 1422.6 648.026 1420.89 651.29C1417.43 657.928 1417.43 662.072 1420.89 668.71C1422.6 671.974 1427.01 679.545 1428.54 681.826C1432.03 687.025 1435.63 689.08 1442.01 689.518C1444.13 689.663 1455.87 689.663 1457.99 689.518C1464.37 689.08 1467.97 687.025 1471.46 681.826C1472.99 679.545 1477.4 671.974 1479.11 668.71C1482.57 662.072 1482.57 657.928 1479.11 651.29C1477.4 648.026 1472.99 640.455 1471.46 638.174C1468.67 634.018 1465.64 631.813 1461.55 630.954C1459.47 630.516 1458.42 630.464 1451.11 630.432C1447.13 630.414 1443.45 630.418 1442.94 630.44ZM1459.31 634.38C1463.41 634.931 1465.69 636.389 1468.18 640.033C1469.56 642.056 1473.94 649.55 1475.7 652.883C1477.32 655.956 1477.88 657.803 1477.88 660C1477.88 662.198 1477.32 664.044 1475.7 667.117C1473.91 670.509 1469.56 677.945 1468.18 679.967C1465.72 683.575 1463.55 684.979 1459.42 685.633C1458.25 685.819 1457.22 685.842 1450 685.842C1442.78 685.842 1441.75 685.819 1440.58 685.633C1437.2 685.097 1435.23 684.098 1433.37 681.972C1431.93 680.324 1430.51 678.088 1426.9 671.783C1422.89 664.783 1422.12 662.878 1422.12 660C1422.12 657.122 1422.89 655.217 1426.9 648.217C1432.33 638.741 1433.66 636.992 1436.52 635.566C1439.13 634.269 1440.89 634.101 1451.22 634.162C1456.45 634.193 1458.29 634.242 1459.31 634.38ZM1455.22 649.043C1454.84 649.133 1450.49 650.885 1447.08 652.325C1445.11 653.159 1443.9 654.129 1443.03 655.581C1442.64 656.245 1439.39 664.047 1439.09 665.051C1438.21 668.009 1440.56 671.077 1443.71 671.082C1444.66 671.084 1444.77 671.045 1449.77 668.991C1454.07 667.221 1454.71 666.901 1455.66 666.04C1456.68 665.119 1457.14 664.248 1458.99 659.756C1460.95 654.996 1461.08 654.621 1461.08 653.708C1461.07 650.639 1458.19 648.343 1455.22 649.043ZM1457.01 652.991C1457.2 653.179 1457.35 653.456 1457.35 653.607C1457.35 653.939 1454.06 661.962 1453.68 662.555C1453.36 663.04 1452.94 663.454 1452.45 663.768C1451.91 664.101 1443.9 667.35 1443.61 667.35C1443.25 667.35 1442.65 666.751 1442.65 666.386C1442.65 666.047 1445.91 658.084 1446.31 657.456C1446.64 656.938 1447.22 656.409 1447.79 656.114C1448.76 655.609 1456.04 652.667 1456.34 652.659C1456.55 652.653 1456.78 652.766 1457.01 652.991Z" fill="black"/>
</g>
<g id="Ultralight-S">
<path id="Vector_15" fill-rule="evenodd" clip-rule="evenodd" d="M552.942 630.44C545.961 630.739 542.159 632.78 538.542 638.174C537.011 640.455 532.597 648.026 530.894 651.29C527.432 657.928 527.432 662.072 530.894 668.71C532.597 671.974 537.011 679.545 538.542 681.826C542.029 687.025 545.627 689.08 552.008 689.518C554.126 689.663 565.874 689.663 567.992 689.518C574.373 689.08 577.971 687.025 581.458 681.826C582.989 679.545 587.403 671.974 589.106 668.71C592.568 662.072 592.568 657.928 589.106 651.29C587.403 648.026 582.989 640.455 581.458 638.174C578.671 634.018 575.645 631.813 571.55 630.954C569.467 630.516 568.417 630.464 561.108 630.432C557.13 630.414 553.455 630.418 552.942 630.44ZM569.313 634.38C573.408 634.931 575.694 636.389 578.179 640.033C579.558 642.056 583.943 649.55 585.698 652.883C587.316 655.956 587.883 657.803 587.883 660C587.883 662.198 587.316 664.044 585.696 667.117C583.907 670.509 579.557 677.945 578.179 679.967C575.719 683.575 573.55 684.979 569.423 685.633C568.253 685.819 567.218 685.842 560 685.842C552.782 685.842 551.747 685.819 550.577 685.633C547.199 685.097 545.233 684.098 543.374 681.972C541.934 680.324 540.513 678.088 536.901 671.783C532.89 664.783 532.117 662.878 532.117 660C532.117 657.122 532.89 655.217 536.901 648.217C542.33 638.741 543.66 636.992 546.525 635.566C549.128 634.269 550.889 634.101 561.225 634.162C566.451 634.193 568.293 634.242 569.313 634.38ZM565.22 649.043C564.84 649.133 560.495 650.885 557.083 652.325C555.106 653.159 553.9 654.129 553.034 655.581C552.638 656.245 549.39 664.047 549.092 665.051C548.214 668.009 550.564 671.077 553.711 671.082C554.662 671.084 554.775 671.045 559.767 668.991C564.07 667.221 564.709 666.901 565.66 666.04C566.676 665.119 567.138 664.248 568.991 659.756C570.954 654.996 571.084 654.621 571.082 653.708C571.075 650.639 568.19 648.343 565.22 649.043ZM567.009 652.991C567.197 653.179 567.35 653.456 567.35 653.607C567.35 653.939 564.058 661.962 563.678 662.555C563.357 663.04 562.939 663.454 562.45 663.768C561.915 664.101 553.9 667.35 553.614 667.35C553.249 667.35 552.65 666.751 552.65 666.386C552.65 666.047 555.914 658.084 556.311 657.456C556.638 656.938 557.219 656.409 557.786 656.114C558.759 655.609 566.04 652.667 566.338 652.659C566.555 652.653 566.784 652.766 567.009 652.991Z" fill="black"/>
</g>
</g>
</g>
<defs>
<clipPath id="clip0_221_360">
<rect width="3300" height="2200" fill="white"/>
</clipPath>
</defs>
</svg>
