<svg width="3300" height="2200" viewBox="0 0 3300 2200" fill="none" xmlns="http://www.w3.org/2000/svg">
<g id="home" clip-path="url(#clip0_220_144)">
<g id="Notes">
<path id="artboard" d="M3300 0H0V2200H3300V0Z" fill="white"/>
<path id="Vector" d="M263 292H3036" stroke="black" stroke-width="0.5"/>
<text id="Weight/Scale Variations" fill="black" xml:space="preserve" style="white-space: pre" font-family="Inter" font-size="13" font-weight="bold" letter-spacing="0em"><tspan x="263" y="321.727">Weight/Scale Variations</tspan></text>
<text id="Ultralight" fill="black" xml:space="preserve" style="white-space: pre" font-family="Inter" font-size="13" letter-spacing="0em"><tspan x="531.211" y="321.727">Ultralight</tspan></text>
<text id="Thin" fill="black" xml:space="preserve" style="white-space: pre" font-family="Inter" font-size="13" letter-spacing="0em"><tspan x="842.922" y="321.727">Thin</tspan></text>
<text id="Light" fill="black" xml:space="preserve" style="white-space: pre" font-family="Inter" font-size="13" letter-spacing="0em"><tspan x="1137.63" y="321.727">Light</tspan></text>
<text id="Regular" fill="black" xml:space="preserve" style="white-space: pre" font-family="Inter" font-size="13" letter-spacing="0em"><tspan x="1426.34" y="321.727">Regular</tspan></text>
<text id="Medium" fill="black" xml:space="preserve" style="white-space: pre" font-family="Inter" font-size="13" letter-spacing="0em"><tspan x="1721.56" y="321.727">Medium</tspan></text>
<text id="Semibold" fill="black" xml:space="preserve" style="white-space: pre" font-family="Inter" font-size="13" letter-spacing="0em"><tspan x="2014.27" y="321.727">Semibold</tspan></text>
<text id="Bold" fill="black" xml:space="preserve" style="white-space: pre" font-family="Inter" font-size="13" letter-spacing="0em"><tspan x="2325.98" y="321.727">Bold</tspan></text>
<text id="Heavy" fill="black" xml:space="preserve" style="white-space: pre" font-family="Inter" font-size="13" letter-spacing="0em"><tspan x="2617.19" y="321.727">Heavy</tspan></text>
<text id="Black" fill="black" xml:space="preserve" style="white-space: pre" font-family="Inter" font-size="13" letter-spacing="0em"><tspan x="2916.4" y="321.727">Black</tspan></text>
<path id="Vector_2" d="M263 1903H3036" stroke="black" stroke-width="0.5"/>
<g id="Group">
<path id="Vector_3" d="M272.248 1933.83C276.555 1933.83 280.139 1930.26 280.139 1925.95C280.139 1921.64 276.545 1918.07 272.238 1918.07C267.941 1918.07 264.367 1921.64 264.367 1925.95C264.367 1930.26 267.951 1933.83 272.248 1933.83ZM272.248 1932.35C268.703 1932.35 265.871 1929.5 265.871 1925.95C265.871 1922.39 268.693 1919.55 272.238 1919.55C275.793 1919.55 278.644 1922.39 278.644 1925.95C278.644 1929.5 275.803 1932.35 272.248 1932.35ZM268.654 1925.95C268.654 1926.38 268.957 1926.67 269.406 1926.67H271.506V1928.79C271.506 1929.23 271.799 1929.53 272.229 1929.53C272.678 1929.53 272.971 1929.23 272.971 1928.79V1926.67H275.09C275.529 1926.67 275.832 1926.38 275.832 1925.95C275.832 1925.51 275.529 1925.21 275.09 1925.21H272.971V1923.1C272.971 1922.65 272.678 1922.35 272.229 1922.35C271.799 1922.35 271.506 1922.65 271.506 1923.1V1925.21H269.406C268.957 1925.21 268.654 1925.51 268.654 1925.95Z" fill="black"/>
</g>
<g id="Group_2">
<path id="Vector_4" d="M293.576 1935.91C299.025 1935.91 303.537 1931.39 303.537 1925.95C303.537 1920.5 299.015 1915.99 293.566 1915.99C288.127 1915.99 283.615 1920.5 283.615 1925.95C283.615 1931.39 288.136 1935.91 293.576 1935.91ZM293.576 1934.25C288.967 1934.25 285.285 1930.56 285.285 1925.95C285.285 1921.34 288.957 1917.65 293.566 1917.65C298.176 1917.65 301.877 1921.34 301.877 1925.95C301.877 1930.56 298.185 1934.25 293.576 1934.25ZM289.045 1925.95C289.045 1926.43 289.377 1926.75 289.875 1926.75H292.746V1929.63C292.746 1930.12 293.078 1930.46 293.556 1930.46C294.045 1930.46 294.386 1930.13 294.386 1929.63V1926.75H297.267C297.756 1926.75 298.097 1926.43 298.097 1925.95C298.097 1925.46 297.756 1925.12 297.267 1925.12H294.386V1922.25C294.386 1921.75 294.045 1921.41 293.556 1921.41C293.078 1921.41 292.746 1921.75 292.746 1922.25V1925.12H289.875C289.377 1925.12 289.045 1925.46 289.045 1925.95Z" fill="black"/>
</g>
<g id="Group_3">
<path id="Vector_5" d="M320.617 1938.66C327.58 1938.66 333.341 1932.9 333.341 1925.95C333.341 1918.99 327.57 1913.22 320.607 1913.22C313.654 1913.22 307.902 1918.99 307.902 1925.95C307.902 1932.9 313.664 1938.66 320.617 1938.66ZM320.617 1936.85C314.582 1936.85 309.728 1931.98 309.728 1925.95C309.728 1919.9 314.572 1915.05 320.607 1915.05C326.652 1915.05 331.515 1919.9 331.515 1925.95C331.515 1931.98 326.662 1936.85 320.617 1936.85ZM314.845 1925.95C314.845 1926.47 315.216 1926.83 315.763 1926.83H319.708V1930.78C319.708 1931.32 320.08 1931.7 320.597 1931.7C321.134 1931.7 321.505 1931.33 321.505 1930.78V1926.83H325.46C325.998 1926.83 326.378 1926.47 326.378 1925.95C326.378 1925.4 326.007 1925.03 325.46 1925.03H321.505V1921.09C321.505 1920.54 321.134 1920.16 320.597 1920.16C320.08 1920.16 319.708 1920.54 319.708 1921.09V1925.03H315.763C315.216 1925.03 314.845 1925.4 314.845 1925.95Z" fill="black"/>
</g>
<text id="Design Variations" fill="black" xml:space="preserve" style="white-space: pre" font-family="Inter" font-size="13" font-weight="bold" letter-spacing="0em"><tspan x="263" y="1952.73">Design Variations</tspan></text>
<text id="Symbols are supported in up to nine weights and three scales." fill="black" xml:space="preserve" style="white-space: pre" font-family="Inter" font-size="13" letter-spacing="0em"><tspan x="263" y="1970.73">Symbols are supported in up to nine weights and three scales.</tspan></text>
<text id="For optimal layout with text and other symbols, vertically align" fill="black" xml:space="preserve" style="white-space: pre" font-family="Inter" font-size="13" letter-spacing="0em"><tspan x="263" y="1988.73">For optimal layout with text and other symbols, vertically align</tspan></text>
<text id="symbols with the adjacent text." fill="black" xml:space="preserve" style="white-space: pre" font-family="Inter" font-size="13" letter-spacing="0em"><tspan x="263" y="2006.73">symbols with the adjacent text.</tspan></text>
<path id="Vector_6" d="M776 1919V1933" stroke="#00AEEF" stroke-width="0.5"/>
<g id="Group_4">
<path id="Vector_7" d="M779.311 1933.16C779.828 1933.16 780.082 1932.96 780.268 1932.41L781.527 1928.97H787.289L788.549 1932.41C788.734 1932.96 788.988 1933.16 789.496 1933.16C790.014 1933.16 790.346 1932.84 790.346 1932.36C790.346 1932.19 790.316 1932.03 790.238 1931.83L785.658 1919.63C785.434 1919.04 785.033 1918.73 784.408 1918.73C783.803 1918.73 783.393 1919.03 783.178 1919.62L778.598 1931.84C778.52 1932.04 778.49 1932.2 778.49 1932.37C778.49 1932.85 778.803 1933.16 779.311 1933.16ZM782.006 1927.48L784.379 1920.91H784.428L786.801 1927.48H782.006Z" fill="black"/>
</g>
<path id="Vector_8" d="M793.197 1919V1933" stroke="#00AEEF" stroke-width="0.5"/>
<text id="Margins" fill="black" xml:space="preserve" style="white-space: pre" font-family="Inter" font-size="13" font-weight="bold" letter-spacing="0em"><tspan x="776" y="1952.73">Margins</tspan></text>
<text id="Leading and trailing margins on the left and right side of each symbol" fill="black" xml:space="preserve" style="white-space: pre" font-family="Inter" font-size="13" letter-spacing="0em"><tspan x="776" y="1970.73">Leading and trailing margins on the left and right side of each symbol</tspan></text>
<text id="can be adjusted by modifying the x-location of the margin guidelines." fill="black" xml:space="preserve" style="white-space: pre" font-family="Inter" font-size="13" letter-spacing="0em"><tspan x="776" y="1988.73">can be adjusted by modifying the x-location of the margin guidelines.</tspan></text>
<text id="Modifications are automatically applied proportionally to all" fill="black" xml:space="preserve" style="white-space: pre" font-family="Inter" font-size="13" letter-spacing="0em"><tspan x="776" y="2006.73">Modifications are automatically applied proportionally to all</tspan></text>
<text id="scales and weights." fill="black" xml:space="preserve" style="white-space: pre" font-family="Inter" font-size="13" letter-spacing="0em"><tspan x="776" y="2024.73">scales and weights.</tspan></text>
<g id="Group_5">
<path id="Vector_9" d="M1291.84 1934.87L1293.54 1936.57C1294.4 1937.44 1295.39 1937.38 1296.31 1936.36L1307.01 1924.57L1306.04 1923.6L1295.43 1935.28C1295.07 1935.68 1294.74 1935.77 1294.27 1935.3L1293.1 1934.14C1292.63 1933.68 1292.74 1933.34 1293.14 1932.98L1304.62 1922.18L1303.64 1921.21L1292.05 1932.1C1291.06 1933.02 1290.98 1934 1291.84 1934.87ZM1298.26 1916.67C1297.84 1917.08 1297.81 1917.66 1298.04 1918.05C1298.28 1918.41 1298.74 1918.64 1299.38 1918.48C1300.85 1918.14 1302.37 1918.08 1303.79 1919.02L1303.21 1920.47C1302.87 1921.3 1303.04 1921.89 1303.58 1922.43L1305.87 1924.75C1306.36 1925.24 1306.77 1925.26 1307.34 1925.16L1308.4 1924.96L1309.07 1925.64L1309.03 1926.19C1308.99 1926.69 1309.12 1927.07 1309.61 1927.55L1310.37 1928.29C1310.85 1928.77 1311.46 1928.8 1311.93 1928.33L1314.84 1925.41C1315.31 1924.94 1315.29 1924.35 1314.81 1923.87L1314.04 1923.11C1313.56 1922.63 1313.19 1922.47 1312.71 1922.51L1312.13 1922.56L1311.49 1921.93L1311.73 1920.8C1311.86 1920.24 1311.71 1919.8 1311.12 1919.21L1308.92 1917.02C1305.58 1913.7 1301.15 1913.78 1298.26 1916.67ZM1299.75 1917.04C1302.18 1915.27 1305.47 1915.57 1307.7 1917.8L1310.13 1920.21C1310.37 1920.44 1310.41 1920.63 1310.34 1920.97L1310.02 1922.45L1311.52 1923.94L1312.51 1923.88C1312.76 1923.87 1312.84 1923.89 1313.03 1924.08L1313.61 1924.66L1311.17 1927.1L1310.59 1926.53C1310.4 1926.33 1310.37 1926.25 1310.38 1925.99L1310.45 1925.01L1308.95 1923.53L1307.43 1923.78C1307.11 1923.85 1306.96 1923.82 1306.71 1923.59L1304.71 1921.58C1304.46 1921.35 1304.43 1921.18 1304.59 1920.81L1305.46 1918.72C1303.9 1917.27 1301.87 1916.64 1299.84 1917.24C1299.68 1917.28 1299.62 1917.15 1299.75 1917.04Z" fill="black"/>
</g>
<text id="Exporting" fill="black" xml:space="preserve" style="white-space: pre" font-family="Inter" font-size="13" font-weight="bold" letter-spacing="0em"><tspan x="1289" y="1952.73">Exporting</tspan></text>
<text id="Symbols should be outlined when exporting to ensure the" fill="black" xml:space="preserve" style="white-space: pre" font-family="Inter" font-size="13" letter-spacing="0em"><tspan x="1289" y="1970.73">Symbols should be outlined when exporting to ensure the</tspan></text>
<text id="design is preserved when submitting to Xcode." fill="black" xml:space="preserve" style="white-space: pre" font-family="Inter" font-size="13" letter-spacing="0em"><tspan x="1289" y="1988.73">design is preserved when submitting to Xcode.</tspan></text>
<text id="template-version" fill="black" xml:space="preserve" style="white-space: pre" font-family="Inter" font-size="13" letter-spacing="0em"><tspan x="2945" y="1932.73">Template v.4.0</tspan></text>
<text id="Requires Xcode 14 or greater" fill="black" xml:space="preserve" style="white-space: pre" font-family="Inter" font-size="13" letter-spacing="0em"><tspan x="2857" y="1950.73">Requires Xcode 14 or greater</tspan></text>
<text id="descriptive-name" fill="black" xml:space="preserve" style="white-space: pre" font-family="Inter" font-size="13" letter-spacing="0em"><tspan x="2898" y="1968.73">Generated from house</tspan></text>
<text id="Typeset at 100 points" fill="black" xml:space="preserve" style="white-space: pre" font-family="Inter" font-size="13" letter-spacing="0em"><tspan x="2903" y="1986.73">Typeset at 100 points</tspan></text>
<text id="Small" fill="black" xml:space="preserve" style="white-space: pre" font-family="Inter" font-size="13" letter-spacing="0em"><tspan x="263" y="725.727">Small</tspan></text>
<text id="Medium_2" fill="black" xml:space="preserve" style="white-space: pre" font-family="Inter" font-size="13" letter-spacing="0em"><tspan x="263" y="1155.73">Medium</tspan></text>
<text id="Large" fill="black" xml:space="preserve" style="white-space: pre" font-family="Inter" font-size="13" letter-spacing="0em"><tspan x="263" y="1585.73">Large</tspan></text>
</g>
<g id="Guides">
<g id="H-reference">
<path id="Vector_10" d="M339.994 696H342.638L368.328 628.868H369.03V625.541H367.123L339.994 696ZM350.688 671.52H385.981L385.231 669.272H351.438L350.688 671.52ZM394.12 696H396.764L369.638 625.541H368.433V628.868L394.12 696Z" fill="#27AAE1"/>
</g>
<path id="Baseline-S" d="M263 696H3036" stroke="#27AAE1" stroke-width="0.5"/>
<path id="Capline-S" d="M263 625.541H3036" stroke="#27AAE1" stroke-width="0.5"/>
<g id="H-reference_2">
<path id="Vector_11" d="M339.994 1126H342.638L368.328 1058.87H369.03V1055.54H367.123L339.994 1126ZM350.688 1101.52H385.981L385.231 1099.27H351.438L350.688 1101.52ZM394.12 1126H396.764L369.638 1055.54H368.433V1058.87L394.12 1126Z" fill="#27AAE1"/>
</g>
<path id="Baseline-M" d="M263 1126H3036" stroke="#27AAE1" stroke-width="0.5"/>
<path id="Capline-M" d="M263 1055.54H3036" stroke="#27AAE1" stroke-width="0.5"/>
<g id="H-reference_3">
<path id="Vector_12" d="M339.994 1556H342.638L368.328 1488.87H369.03V1485.54H367.123L339.994 1556ZM350.688 1531.52H385.981L385.231 1529.27H351.438L350.688 1531.52ZM394.12 1556H396.764L369.638 1485.54H368.433V1488.87L394.12 1556Z" fill="#27AAE1"/>
</g>
<path id="Baseline-L" d="M263 1556H3036" stroke="#27AAE1" stroke-width="0.5"/>
<path id="Capline-L" d="M263 1485.54H3036" stroke="#27AAE1" stroke-width="0.5"/>
<path id="left-margin-Ultralight-S" d="M508.561 600.785V720.121" stroke="#00AEEF" stroke-width="0.5"/>
<path id="right-margin-Ultralight-S" d="M610.861 600.785V720.121" stroke="#00AEEF" stroke-width="0.5"/>
<path id="left-margin-Regular-S" d="M1393.47 600.785V720.121" stroke="#00AEEF" stroke-width="0.5"/>
<path id="right-margin-Regular-S" d="M1506.22 600.785V720.121" stroke="#00AEEF" stroke-width="0.5"/>
<path id="left-margin-Black-S" d="M2871.88 600.785V720.121" stroke="#00AEEF" stroke-width="0.5"/>
<path id="right-margin-Black-S" d="M2994.92 600.785V720.121" stroke="#00AEEF" stroke-width="0.5"/>
</g>
<g id="Symbols">
<g id="Black-S">
<g id="Vector_13">
<path d="M2927.17 674.787C2925.96 674.787 2924.98 675.766 2924.98 676.974C2924.98 678.182 2925.96 679.162 2927.17 679.162H2938.83C2940.04 679.162 2941.02 678.182 2941.02 676.974C2941.02 675.766 2940.04 674.787 2938.83 674.787H2927.17Z" fill="black"/>
<path fill-rule="evenodd" clip-rule="evenodd" d="M2933.61 628.657C2933.2 628.642 2932.79 628.642 2932.39 628.657C2929.68 628.756 2927.24 629.676 2924.57 631.207C2921.97 632.699 2918.98 634.876 2915.17 637.638L2914.97 637.788C2911.17 640.55 2908.17 642.727 2905.95 644.741C2903.66 646.808 2902.04 648.84 2901.11 651.382C2900.97 651.767 2900.84 652.157 2900.73 652.551C2899.99 655.154 2900.11 657.755 2900.74 660.768C2901.35 663.704 2902.5 667.226 2903.95 671.695L2904.03 671.938C2905.48 676.407 2906.63 679.929 2907.85 682.666C2909.11 685.475 2910.54 687.65 2912.67 689.32C2913 689.573 2913.33 689.815 2913.67 690.043C2915.92 691.553 2918.43 692.24 2921.49 692.571C2924.47 692.894 2928.17 692.894 2932.87 692.894H2933.13C2937.83 692.894 2941.53 692.894 2944.51 692.571C2947.57 692.24 2950.08 691.553 2952.33 690.043C2952.67 689.815 2953 689.573 2953.33 689.32C2955.46 687.65 2956.89 685.475 2958.15 682.666C2959.37 679.929 2960.52 676.407 2961.97 671.938L2962.05 671.695C2963.5 667.227 2964.65 663.704 2965.26 660.768C2965.89 657.755 2966.01 655.154 2965.27 652.551C2965.16 652.157 2965.03 651.767 2964.89 651.382C2963.96 648.84 2962.33 646.808 2960.05 644.741C2957.83 642.727 2954.83 640.55 2951.03 637.788L2950.83 637.638C2947.02 634.876 2944.03 632.699 2941.43 631.207C2938.76 629.676 2936.32 628.756 2933.61 628.657ZM2932.55 633.029C2932.85 633.018 2933.15 633.018 2933.45 633.029C2935.19 633.093 2936.92 633.668 2939.25 635.003C2941.62 636.364 2944.43 638.399 2948.36 641.253C2952.29 644.106 2955.09 646.147 2957.12 647.984C2959.11 649.786 2960.19 651.253 2960.78 652.885C2960.89 653.17 2960.98 653.458 2961.06 653.75C2961.54 655.421 2961.53 657.244 2960.98 659.871C2960.42 662.549 2959.35 665.848 2957.85 670.465C2956.35 675.082 2955.27 678.379 2954.15 680.875C2953.06 683.324 2951.99 684.805 2950.63 685.878C2950.39 686.065 2950.14 686.243 2949.89 686.412C2948.45 687.381 2946.71 687.933 2944.04 688.222C2941.32 688.516 2937.85 688.519 2933 688.519C2928.15 688.519 2924.68 688.516 2921.96 688.222C2919.29 687.933 2917.55 687.381 2916.11 686.412C2915.86 686.243 2915.61 686.065 2915.37 685.878C2914.01 684.805 2912.94 683.324 2911.85 680.875C2910.73 678.379 2909.65 675.082 2908.15 670.465C2906.65 665.848 2905.58 662.549 2905.02 659.871C2904.47 657.244 2904.46 655.421 2904.94 653.75C2905.02 653.458 2905.11 653.17 2905.22 652.885C2905.81 651.253 2906.89 649.786 2908.88 647.984C2910.91 646.147 2913.71 644.106 2917.64 641.253C2921.57 638.399 2924.38 636.364 2926.75 635.003C2929.08 633.668 2930.81 633.093 2932.55 633.029Z" fill="black"/>
</g>
</g>
<g id="Regular-S">
<g id="Vector_14">
<path d="M1444.17 674.787C1442.96 674.787 1441.98 675.766 1441.98 676.974C1441.98 678.182 1442.96 679.162 1444.17 679.162H1455.83C1457.04 679.162 1458.02 678.182 1458.02 676.974C1458.02 675.766 1457.04 674.787 1455.83 674.787H1444.17Z" fill="black"/>
<path fill-rule="evenodd" clip-rule="evenodd" d="M1450.61 628.657C1450.2 628.642 1449.79 628.642 1449.39 628.657C1446.68 628.756 1444.24 629.676 1441.57 631.207C1438.97 632.699 1435.98 634.876 1432.17 637.638L1431.97 637.788C1428.17 640.55 1425.17 642.727 1422.95 644.741C1420.66 646.808 1419.04 648.84 1418.11 651.382C1417.97 651.767 1417.84 652.157 1417.73 652.551C1416.99 655.154 1417.11 657.755 1417.74 660.768C1418.35 663.704 1419.5 667.226 1420.95 671.695L1421.03 671.938C1422.48 676.407 1423.63 679.929 1424.85 682.666C1426.11 685.475 1427.54 687.65 1429.67 689.32C1430 689.573 1430.33 689.815 1430.67 690.043C1432.92 691.553 1435.43 692.24 1438.49 692.571C1441.47 692.894 1445.17 692.894 1449.87 692.894H1450.13C1454.83 692.894 1458.53 692.894 1461.51 692.571C1464.57 692.24 1467.08 691.553 1469.33 690.043C1469.67 689.815 1470 689.573 1470.33 689.32C1472.46 687.65 1473.89 685.475 1475.15 682.666C1476.37 679.929 1477.52 676.407 1478.97 671.938L1479.05 671.695C1480.5 667.227 1481.65 663.704 1482.26 660.768C1482.89 657.755 1483.01 655.154 1482.27 652.551C1482.16 652.157 1482.03 651.767 1481.89 651.382C1480.96 648.84 1479.33 646.808 1477.05 644.741C1474.83 642.727 1471.83 640.55 1468.03 637.788L1467.83 637.638C1464.02 634.876 1461.03 632.699 1458.43 631.207C1455.76 629.676 1453.32 628.756 1450.61 628.657ZM1449.55 633.029C1449.85 633.018 1450.15 633.018 1450.45 633.029C1452.19 633.093 1453.92 633.668 1456.25 635.003C1458.62 636.364 1461.43 638.399 1465.36 641.253C1469.29 644.106 1472.09 646.147 1474.12 647.984C1476.11 649.786 1477.19 651.253 1477.78 652.885C1477.89 653.17 1477.98 653.458 1478.06 653.75C1478.54 655.421 1478.53 657.244 1477.98 659.871C1477.42 662.549 1476.35 665.848 1474.85 670.465C1473.35 675.082 1472.27 678.379 1471.15 680.875C1470.06 683.324 1468.99 684.805 1467.63 685.878C1467.39 686.065 1467.14 686.243 1466.89 686.412C1465.45 687.381 1463.71 687.933 1461.04 688.222C1458.32 688.516 1454.85 688.519 1450 688.519C1445.15 688.519 1441.68 688.516 1438.96 688.222C1436.29 687.933 1434.55 687.381 1433.11 686.412C1432.86 686.243 1432.61 686.065 1432.37 685.878C1431.01 684.805 1429.94 683.324 1428.85 680.875C1427.73 678.379 1426.65 675.082 1425.15 670.465C1423.65 665.848 1422.58 662.549 1422.02 659.871C1421.47 657.244 1421.46 655.421 1421.94 653.75C1422.02 653.458 1422.11 653.17 1422.22 652.885C1422.81 651.253 1423.89 649.786 1425.88 647.984C1427.91 646.147 1430.71 644.106 1434.64 641.253C1438.57 638.399 1441.38 636.364 1443.75 635.003C1446.08 633.668 1447.81 633.093 1449.55 633.029Z" fill="black"/>
</g>
</g>
<g id="Ultralight-S">
<g id="Vector_15">
<path d="M554.167 674.787C552.958 674.787 551.979 675.766 551.979 676.974C551.979 678.182 552.958 679.162 554.167 679.162H565.833C567.041 679.162 568.021 678.182 568.021 676.974C568.021 675.766 567.041 674.787 565.833 674.787H554.167Z" fill="black"/>
<path fill-rule="evenodd" clip-rule="evenodd" d="M560.615 628.657C560.205 628.642 559.795 628.642 559.385 628.657C556.68 628.756 554.245 629.676 551.574 631.207C548.972 632.699 545.976 634.876 542.174 637.638L541.967 637.788C538.166 640.55 535.17 642.727 532.946 644.741C530.665 646.808 529.038 648.84 528.107 651.382C527.966 651.767 527.84 652.157 527.727 652.551C526.986 655.154 527.108 657.755 527.739 660.768C528.354 663.704 529.498 667.226 530.95 671.695L531.029 671.938C532.481 676.407 533.626 679.929 534.854 682.666C536.115 685.475 537.544 687.65 539.674 689.32C539.997 689.573 540.329 689.815 540.669 690.043C542.916 691.553 545.427 692.24 548.487 692.571C551.47 692.894 555.173 692.894 559.872 692.894H560.128C564.827 692.894 568.53 692.894 571.512 692.571C574.573 692.24 577.084 691.553 579.331 690.043C579.671 689.815 580.003 689.573 580.325 689.32C582.455 687.65 583.885 685.475 585.146 682.666C586.374 679.929 587.519 676.407 588.971 671.938L589.05 671.695C590.502 667.227 591.646 663.704 592.261 660.768C592.892 657.755 593.014 655.154 592.272 652.551C592.16 652.157 592.033 651.767 591.892 651.382C590.962 648.84 589.335 646.808 587.053 644.741C584.83 642.727 581.834 640.55 578.032 637.788L577.826 637.638C574.024 634.876 571.028 632.699 568.426 631.207C565.755 629.676 563.32 628.756 560.615 628.657ZM559.545 633.029C559.848 633.018 560.151 633.018 560.454 633.029C562.191 633.093 563.921 633.668 566.25 635.003C568.623 636.364 571.43 638.399 575.358 641.253C579.285 644.106 582.089 646.147 584.116 647.984C586.106 649.786 587.187 651.253 587.784 652.885C587.888 653.17 587.982 653.458 588.065 653.75C588.541 655.421 588.529 657.244 587.979 659.871C587.418 662.549 586.349 665.848 584.849 670.465C583.349 675.082 582.275 678.379 581.154 680.875C580.055 683.324 578.993 684.805 577.626 685.878C577.387 686.065 577.142 686.243 576.891 686.412C575.448 687.381 573.711 687.933 571.042 688.222C568.322 688.516 564.855 688.519 560 688.519C555.145 688.519 551.678 688.516 548.958 688.222C546.289 687.933 544.552 687.381 543.109 686.412C542.858 686.243 542.612 686.065 542.374 685.878C541.006 684.805 539.945 683.324 538.845 680.875C537.725 678.379 536.651 675.082 535.151 670.465C533.65 665.848 532.582 662.549 532.021 659.871C531.471 657.244 531.459 655.421 531.935 653.75C532.018 653.458 532.112 653.17 532.216 652.885C532.813 651.253 533.894 649.786 535.884 647.984C537.911 646.147 540.715 644.106 544.642 641.253C548.57 638.399 551.377 636.364 553.75 635.003C556.079 633.668 557.809 633.093 559.545 633.029Z" fill="black"/>
</g>
</g>
</g>
</g>
<defs>
<clipPath id="clip0_220_144">
<rect width="3300" height="2200" fill="white"/>
</clipPath>
</defs>
</svg>
