<svg width="3300" height="2200" viewBox="0 0 3300 2200" fill="none" xmlns="http://www.w3.org/2000/svg">
<g id="loop" clip-path="url(#clip0_224_1249)">
<g id="Notes">
<path id="artboard" d="M3300 0H0V2200H3300V0Z" fill="white"/>
<path id="Vector" d="M263 292H3036" stroke="black" stroke-width="0.5"/>
<text id="Weight/Scale Variations" fill="black" xml:space="preserve" style="white-space: pre" font-family="Inter" font-size="13" font-weight="bold" letter-spacing="0em"><tspan x="263" y="321.727">Weight/Scale Variations</tspan></text>
<text id="Ultralight" fill="black" xml:space="preserve" style="white-space: pre" font-family="Inter" font-size="13" letter-spacing="0em"><tspan x="531.661" y="321.727">Ultralight</tspan></text>
<text id="Thin" fill="black" xml:space="preserve" style="white-space: pre" font-family="Inter" font-size="13" letter-spacing="0em"><tspan x="843.066" y="321.727">Thin</tspan></text>
<text id="Light" fill="black" xml:space="preserve" style="white-space: pre" font-family="Inter" font-size="13" letter-spacing="0em"><tspan x="1137.77" y="321.727">Light</tspan></text>
<text id="Regular" fill="black" xml:space="preserve" style="white-space: pre" font-family="Inter" font-size="13" letter-spacing="0em"><tspan x="1426.58" y="321.727">Regular</tspan></text>
<text id="Medium" fill="black" xml:space="preserve" style="white-space: pre" font-family="Inter" font-size="13" letter-spacing="0em"><tspan x="1721.99" y="321.727">Medium</tspan></text>
<text id="Semibold" fill="black" xml:space="preserve" style="white-space: pre" font-family="Inter" font-size="13" letter-spacing="0em"><tspan x="2014.65" y="321.727">Semibold</tspan></text>
<text id="Bold" fill="black" xml:space="preserve" style="white-space: pre" font-family="Inter" font-size="13" letter-spacing="0em"><tspan x="2326.29" y="321.727">Bold</tspan></text>
<text id="Heavy" fill="black" xml:space="preserve" style="white-space: pre" font-family="Inter" font-size="13" letter-spacing="0em"><tspan x="2617.32" y="321.727">Heavy</tspan></text>
<text id="Black" fill="black" xml:space="preserve" style="white-space: pre" font-family="Inter" font-size="13" letter-spacing="0em"><tspan x="2916.8" y="321.727">Black</tspan></text>
<path id="Vector_2" d="M263 1903H3036" stroke="black" stroke-width="0.5"/>
<g id="Group">
<path id="Vector_3" d="M272.248 1933.83C276.555 1933.83 280.139 1930.26 280.139 1925.95C280.139 1921.64 276.545 1918.07 272.238 1918.07C267.941 1918.07 264.367 1921.64 264.367 1925.95C264.367 1930.26 267.951 1933.83 272.248 1933.83ZM272.248 1932.35C268.703 1932.35 265.871 1929.5 265.871 1925.95C265.871 1922.39 268.693 1919.55 272.238 1919.55C275.793 1919.55 278.644 1922.39 278.644 1925.95C278.644 1929.5 275.803 1932.35 272.248 1932.35ZM268.654 1925.95C268.654 1926.38 268.957 1926.67 269.406 1926.67H271.506V1928.79C271.506 1929.23 271.799 1929.53 272.229 1929.53C272.678 1929.53 272.971 1929.23 272.971 1928.79V1926.67H275.09C275.529 1926.67 275.832 1926.38 275.832 1925.95C275.832 1925.51 275.529 1925.21 275.09 1925.21H272.971V1923.1C272.971 1922.65 272.678 1922.35 272.229 1922.35C271.799 1922.35 271.506 1922.65 271.506 1923.1V1925.21H269.406C268.957 1925.21 268.654 1925.51 268.654 1925.95Z" fill="black"/>
</g>
<g id="Group_2">
<path id="Vector_4" d="M293.576 1935.91C299.025 1935.91 303.537 1931.39 303.537 1925.95C303.537 1920.5 299.016 1915.99 293.566 1915.99C288.127 1915.99 283.615 1920.5 283.615 1925.95C283.615 1931.39 288.137 1935.91 293.576 1935.91ZM293.576 1934.25C288.967 1934.25 285.285 1930.56 285.285 1925.95C285.285 1921.34 288.957 1917.65 293.566 1917.65C298.176 1917.65 301.877 1921.34 301.877 1925.95C301.877 1930.56 298.186 1934.25 293.576 1934.25ZM289.045 1925.95C289.045 1926.43 289.377 1926.75 289.875 1926.75H292.746V1929.63C292.746 1930.12 293.078 1930.46 293.557 1930.46C294.045 1930.46 294.387 1930.13 294.387 1929.63V1926.75H297.268C297.756 1926.75 298.098 1926.43 298.098 1925.95C298.098 1925.46 297.756 1925.12 297.268 1925.12H294.387V1922.25C294.387 1921.75 294.045 1921.41 293.557 1921.41C293.078 1921.41 292.746 1921.75 292.746 1922.25V1925.12H289.875C289.377 1925.12 289.045 1925.46 289.045 1925.95Z" fill="black"/>
</g>
<g id="Group_3">
<path id="Vector_5" d="M320.617 1938.66C327.58 1938.66 333.341 1932.9 333.341 1925.95C333.341 1918.99 327.57 1913.22 320.607 1913.22C313.654 1913.22 307.902 1918.99 307.902 1925.95C307.902 1932.9 313.664 1938.66 320.617 1938.66ZM320.617 1936.85C314.582 1936.85 309.728 1931.98 309.728 1925.95C309.728 1919.9 314.572 1915.05 320.607 1915.05C326.652 1915.05 331.515 1919.9 331.515 1925.95C331.515 1931.98 326.662 1936.85 320.617 1936.85ZM314.845 1925.95C314.845 1926.47 315.216 1926.83 315.763 1926.83H319.708V1930.78C319.708 1931.32 320.08 1931.7 320.597 1931.7C321.134 1931.7 321.505 1931.33 321.505 1930.78V1926.83H325.46C325.998 1926.83 326.378 1926.47 326.378 1925.95C326.378 1925.4 326.007 1925.03 325.46 1925.03H321.505V1921.09C321.505 1920.54 321.134 1920.16 320.597 1920.16C320.08 1920.16 319.708 1920.54 319.708 1921.09V1925.03H315.763C315.216 1925.03 314.845 1925.4 314.845 1925.95Z" fill="black"/>
</g>
<text id="Design Variations" fill="black" xml:space="preserve" style="white-space: pre" font-family="Inter" font-size="13" font-weight="bold" letter-spacing="0em"><tspan x="263" y="1952.73">Design Variations</tspan></text>
<text id="Symbols are supported in up to nine weights and three scales." fill="black" xml:space="preserve" style="white-space: pre" font-family="Inter" font-size="13" letter-spacing="0em"><tspan x="263" y="1970.73">Symbols are supported in up to nine weights and three scales.</tspan></text>
<text id="For optimal layout with text and other symbols, vertically align" fill="black" xml:space="preserve" style="white-space: pre" font-family="Inter" font-size="13" letter-spacing="0em"><tspan x="263" y="1988.73">For optimal layout with text and other symbols, vertically align</tspan></text>
<text id="symbols with the adjacent text." fill="black" xml:space="preserve" style="white-space: pre" font-family="Inter" font-size="13" letter-spacing="0em"><tspan x="263" y="2006.73">symbols with the adjacent text.</tspan></text>
<path id="Vector_6" d="M776 1919V1933" stroke="#00AEEF" stroke-width="0.5"/>
<g id="Group_4">
<path id="Vector_7" d="M779.311 1933.16C779.828 1933.16 780.082 1932.96 780.268 1932.41L781.527 1928.97H787.289L788.549 1932.41C788.734 1932.96 788.988 1933.16 789.496 1933.16C790.014 1933.16 790.346 1932.84 790.346 1932.36C790.346 1932.19 790.316 1932.03 790.238 1931.83L785.658 1919.63C785.434 1919.04 785.033 1918.73 784.408 1918.73C783.803 1918.73 783.393 1919.03 783.178 1919.62L778.598 1931.84C778.52 1932.04 778.49 1932.2 778.49 1932.37C778.49 1932.85 778.803 1933.16 779.311 1933.16ZM782.006 1927.48L784.379 1920.91H784.428L786.801 1927.48H782.006Z" fill="black"/>
</g>
<path id="Vector_8" d="M793.197 1919V1933" stroke="#00AEEF" stroke-width="0.5"/>
<text id="Margins" fill="black" xml:space="preserve" style="white-space: pre" font-family="Inter" font-size="13" font-weight="bold" letter-spacing="0em"><tspan x="776" y="1952.73">Margins</tspan></text>
<text id="Leading and trailing margins on the left and right side of each symbol" fill="black" xml:space="preserve" style="white-space: pre" font-family="Inter" font-size="13" letter-spacing="0em"><tspan x="776" y="1970.73">Leading and trailing margins on the left and right side of each symbol</tspan></text>
<text id="can be adjusted by modifying the x-location of the margin guidelines." fill="black" xml:space="preserve" style="white-space: pre" font-family="Inter" font-size="13" letter-spacing="0em"><tspan x="776" y="1988.73">can be adjusted by modifying the x-location of the margin guidelines.</tspan></text>
<text id="Modifications are automatically applied proportionally to all" fill="black" xml:space="preserve" style="white-space: pre" font-family="Inter" font-size="13" letter-spacing="0em"><tspan x="776" y="2006.73">Modifications are automatically applied proportionally to all</tspan></text>
<text id="scales and weights." fill="black" xml:space="preserve" style="white-space: pre" font-family="Inter" font-size="13" letter-spacing="0em"><tspan x="776" y="2024.73">scales and weights.</tspan></text>
<g id="Group_5">
<path id="Vector_9" d="M1291.84 1934.87L1293.54 1936.57C1294.4 1937.44 1295.39 1937.38 1296.31 1936.36L1307.01 1924.57L1306.04 1923.6L1295.43 1935.28C1295.07 1935.68 1294.74 1935.77 1294.27 1935.3L1293.1 1934.14C1292.63 1933.68 1292.74 1933.34 1293.14 1932.98L1304.62 1922.18L1303.64 1921.21L1292.05 1932.1C1291.06 1933.02 1290.98 1934 1291.84 1934.87ZM1298.26 1916.67C1297.84 1917.08 1297.81 1917.66 1298.04 1918.05C1298.28 1918.41 1298.74 1918.64 1299.38 1918.48C1300.85 1918.14 1302.37 1918.08 1303.79 1919.02L1303.21 1920.47C1302.87 1921.3 1303.04 1921.89 1303.58 1922.43L1305.87 1924.75C1306.36 1925.24 1306.77 1925.26 1307.34 1925.16L1308.4 1924.96L1309.07 1925.64L1309.03 1926.19C1308.99 1926.69 1309.12 1927.07 1309.61 1927.55L1310.37 1928.29C1310.85 1928.77 1311.46 1928.8 1311.93 1928.33L1314.84 1925.41C1315.31 1924.94 1315.29 1924.35 1314.81 1923.87L1314.04 1923.11C1313.56 1922.63 1313.19 1922.47 1312.71 1922.51L1312.13 1922.56L1311.49 1921.93L1311.73 1920.8C1311.86 1920.24 1311.71 1919.8 1311.12 1919.21L1308.92 1917.02C1305.58 1913.7 1301.15 1913.78 1298.26 1916.67ZM1299.75 1917.04C1302.18 1915.27 1305.47 1915.57 1307.7 1917.79L1310.13 1920.21C1310.37 1920.44 1310.41 1920.63 1310.34 1920.97L1310.02 1922.45L1311.52 1923.94L1312.51 1923.88C1312.76 1923.87 1312.84 1923.89 1313.03 1924.08L1313.61 1924.66L1311.17 1927.1L1310.59 1926.53C1310.4 1926.33 1310.37 1926.25 1310.38 1925.99L1310.45 1925.01L1308.95 1923.53L1307.43 1923.78C1307.11 1923.85 1306.96 1923.82 1306.71 1923.59L1304.71 1921.58C1304.46 1921.35 1304.43 1921.18 1304.59 1920.81L1305.46 1918.72C1303.9 1917.27 1301.87 1916.64 1299.84 1917.24C1299.68 1917.28 1299.62 1917.15 1299.75 1917.04Z" fill="black"/>
</g>
<text id="Exporting" fill="black" xml:space="preserve" style="white-space: pre" font-family="Inter" font-size="13" font-weight="bold" letter-spacing="0em"><tspan x="1289" y="1952.73">Exporting</tspan></text>
<text id="Symbols should be outlined when exporting to ensure the" fill="black" xml:space="preserve" style="white-space: pre" font-family="Inter" font-size="13" letter-spacing="0em"><tspan x="1289" y="1970.73">Symbols should be outlined when exporting to ensure the</tspan></text>
<text id="design is preserved when submitting to Xcode." fill="black" xml:space="preserve" style="white-space: pre" font-family="Inter" font-size="13" letter-spacing="0em"><tspan x="1289" y="1988.73">design is preserved when submitting to Xcode.</tspan></text>
<text id="template-version" fill="black" xml:space="preserve" style="white-space: pre" font-family="Inter" font-size="13" letter-spacing="0em"><tspan x="2945.98" y="1932.73">Template v.4.0</tspan></text>
<text id="Requires Xcode 14 or greater" fill="black" xml:space="preserve" style="white-space: pre" font-family="Inter" font-size="13" letter-spacing="0em"><tspan x="2857.94" y="1950.73">Requires Xcode 14 or greater</tspan></text>
<text id="descriptive-name" fill="black" xml:space="preserve" style="white-space: pre" font-family="Inter" font-size="13" letter-spacing="0em"><tspan x="2898.13" y="1968.73">Generated from house</tspan></text>
<text id="Typeset at 100 points" fill="black" xml:space="preserve" style="white-space: pre" font-family="Inter" font-size="13" letter-spacing="0em"><tspan x="2903.6" y="1986.73">Typeset at 100 points</tspan></text>
<text id="Small" fill="black" xml:space="preserve" style="white-space: pre" font-family="Inter" font-size="13" letter-spacing="0em"><tspan x="263" y="725.727">Small</tspan></text>
<text id="Medium_2" fill="black" xml:space="preserve" style="white-space: pre" font-family="Inter" font-size="13" letter-spacing="0em"><tspan x="263" y="1155.73">Medium</tspan></text>
<text id="Large" fill="black" xml:space="preserve" style="white-space: pre" font-family="Inter" font-size="13" letter-spacing="0em"><tspan x="263" y="1585.73">Large</tspan></text>
</g>
<g id="Guides">
<g id="H-reference">
<path id="Vector_10" d="M339.994 696H342.638L368.328 628.868H369.03V625.541H367.123L339.994 696ZM350.688 671.52H385.981L385.231 669.272H351.438L350.688 671.52ZM394.12 696H396.764L369.638 625.541H368.433V628.868L394.12 696Z" fill="#27AAE1"/>
</g>
<path id="Baseline-S" d="M263 696H3036" stroke="#27AAE1" stroke-width="0.5"/>
<path id="Capline-S" d="M263 625.541H3036" stroke="#27AAE1" stroke-width="0.5"/>
<g id="H-reference_2">
<path id="Vector_11" d="M339.994 1126H342.638L368.328 1058.87H369.03V1055.54H367.123L339.994 1126ZM350.688 1101.52H385.981L385.231 1099.27H351.438L350.688 1101.52ZM394.12 1126H396.764L369.638 1055.54H368.433V1058.87L394.12 1126Z" fill="#27AAE1"/>
</g>
<path id="Baseline-M" d="M263 1126H3036" stroke="#27AAE1" stroke-width="0.5"/>
<path id="Capline-M" d="M263 1055.54H3036" stroke="#27AAE1" stroke-width="0.5"/>
<g id="H-reference_3">
<path id="Vector_12" d="M339.994 1556H342.638L368.328 1488.87H369.03V1485.54H367.123L339.994 1556ZM350.688 1531.52H385.981L385.231 1529.27H351.438L350.688 1531.52ZM394.12 1556H396.764L369.638 1485.54H368.433V1488.87L394.12 1556Z" fill="#27AAE1"/>
</g>
<path id="Baseline-L" d="M263 1556H3036" stroke="#27AAE1" stroke-width="0.5"/>
<path id="Capline-L" d="M263 1485.54H3036" stroke="#27AAE1" stroke-width="0.5"/>
<path id="left-margin-Ultralight-S" d="M508.561 600.785V720.121" stroke="#00AEEF" stroke-width="0.5"/>
<path id="right-margin-Ultralight-S" d="M610.861 600.785V720.121" stroke="#00AEEF" stroke-width="0.5"/>
<path id="left-margin-Regular-S" d="M1393.47 600.785V720.121" stroke="#00AEEF" stroke-width="0.5"/>
<path id="right-margin-Regular-S" d="M1506.22 600.785V720.121" stroke="#00AEEF" stroke-width="0.5"/>
<path id="left-margin-Black-S" d="M2871.88 600.785V720.121" stroke="#00AEEF" stroke-width="0.5"/>
<path id="right-margin-Black-S" d="M2994.92 600.785V720.121" stroke="#00AEEF" stroke-width="0.5"/>
</g>
<g id="Symbols">
<g id="Black-S">
<g id="Vector_13">
<path d="M2944.03 632.203C2943.17 631.349 2941.79 631.349 2940.93 632.203C2940.08 633.057 2940.08 634.443 2940.93 635.297L2943.03 637.396L2929.61 637.396C2924.63 637.395 2921.6 637.395 2919.07 638.217C2913.96 639.876 2909.96 643.879 2908.3 648.984C2907.48 651.514 2907.48 654.551 2907.48 659.528V660.472C2907.48 665.449 2907.48 668.486 2908.3 671.016C2908.67 672.165 2909.91 672.794 2911.06 672.42C2912.21 672.047 2912.83 670.813 2912.46 669.664C2911.88 667.88 2911.85 665.599 2911.85 660C2911.85 654.401 2911.88 652.12 2912.46 650.336C2913.69 646.562 2916.65 643.604 2920.42 642.378C2922.2 641.798 2924.48 641.771 2930.08 641.771H2942.27L2940.35 643.372C2939.42 644.145 2939.3 645.524 2940.07 646.452C2940.84 647.381 2942.22 647.506 2943.15 646.733L2947.26 643.308C2948.38 642.374 2948.99 641.064 2949.08 639.73C2949.18 638.322 2948.69 636.868 2947.6 635.778L2944.03 632.203Z" fill="black"/>
<path d="M2957.7 648.984C2957.33 647.835 2956.09 647.206 2954.94 647.58C2953.79 647.953 2953.17 649.187 2953.54 650.336C2954.12 652.12 2954.15 654.401 2954.15 660C2954.15 665.599 2954.12 667.88 2953.54 669.664C2952.31 673.438 2949.35 676.396 2945.58 677.622C2943.8 678.202 2941.52 678.229 2935.92 678.229H2930.08C2927.26 678.229 2925.28 678.223 2923.79 678.141L2925.8 676.13C2926.65 675.276 2926.65 673.891 2925.8 673.037C2924.94 672.182 2923.56 672.182 2922.7 673.037L2919.13 676.611C2918.35 677.394 2917.87 678.37 2917.7 679.382C2917.42 681.094 2918.02 682.93 2919.47 684.142L2923.58 687.566C2924.51 688.339 2925.89 688.214 2926.66 687.286C2927.43 686.358 2927.31 684.978 2926.38 684.205L2924.39 682.549C2925.88 682.605 2927.59 682.605 2929.63 682.604H2936.39C2941.37 682.605 2944.4 682.605 2946.93 681.783C2952.04 680.124 2956.04 676.121 2957.7 671.016C2958.52 668.486 2958.52 665.449 2958.52 660.472V659.528C2958.52 654.551 2958.52 651.514 2957.7 648.984Z" fill="black"/>
</g>
</g>
<g id="Regular-S">
<g id="Vector_14">
<path d="M1461.03 632.203C1460.17 631.349 1458.79 631.349 1457.93 632.203C1457.08 633.057 1457.08 634.443 1457.93 635.297L1460.03 637.396L1446.61 637.396C1441.63 637.395 1438.6 637.395 1436.07 638.217C1430.96 639.876 1426.96 643.879 1425.3 648.984C1424.48 651.514 1424.48 654.551 1424.48 659.528V660.472C1424.48 665.449 1424.48 668.486 1425.3 671.016C1425.67 672.165 1426.91 672.794 1428.06 672.42C1429.21 672.047 1429.83 670.813 1429.46 669.664C1428.88 667.88 1428.85 665.599 1428.85 660C1428.85 654.401 1428.88 652.12 1429.46 650.336C1430.69 646.562 1433.65 643.604 1437.42 642.378C1439.2 641.798 1441.48 641.771 1447.08 641.771H1459.27L1457.35 643.372C1456.42 644.145 1456.3 645.524 1457.07 646.452C1457.84 647.381 1459.22 647.506 1460.15 646.733L1464.26 643.308C1465.38 642.374 1465.99 641.064 1466.08 639.73C1466.18 638.322 1465.69 636.868 1464.6 635.778L1461.03 632.203Z" fill="black"/>
<path d="M1474.7 648.984C1474.33 647.835 1473.09 647.206 1471.94 647.58C1470.79 647.953 1470.17 649.187 1470.54 650.336C1471.12 652.12 1471.15 654.401 1471.15 660C1471.15 665.599 1471.12 667.88 1470.54 669.664C1469.31 673.438 1466.35 676.396 1462.58 677.622C1460.8 678.202 1458.52 678.229 1452.92 678.229H1447.08C1444.26 678.229 1442.28 678.223 1440.79 678.141L1442.8 676.13C1443.65 675.276 1443.65 673.891 1442.8 673.037C1441.94 672.182 1440.56 672.182 1439.7 673.037L1436.13 676.611C1435.35 677.394 1434.87 678.37 1434.7 679.382C1434.42 681.094 1435.02 682.93 1436.47 684.142L1440.58 687.566C1441.51 688.339 1442.89 688.214 1443.66 687.286C1444.43 686.358 1444.31 684.978 1443.38 684.205L1441.39 682.549C1442.88 682.605 1444.59 682.605 1446.63 682.604H1453.39C1458.37 682.605 1461.4 682.605 1463.93 681.783C1469.04 680.124 1473.04 676.121 1474.7 671.016C1475.52 668.486 1475.52 665.449 1475.52 660.472V659.528C1475.52 654.551 1475.52 651.514 1474.7 648.984Z" fill="black"/>
</g>
</g>
<g id="Ultralight-S">
<g id="Vector_15">
<path d="M571.026 632.203C570.172 631.349 568.787 631.349 567.932 632.203C567.078 633.057 567.078 634.443 567.932 635.297L570.031 637.396L556.611 637.396C551.635 637.395 548.598 637.395 546.067 638.217C540.962 639.876 536.959 643.879 535.3 648.984C534.478 651.514 534.478 654.551 534.479 659.528V660.472C534.478 665.449 534.478 668.486 535.3 671.016C535.673 672.165 536.907 672.794 538.056 672.42C539.205 672.047 539.834 670.813 539.461 669.664C538.881 667.88 538.854 665.599 538.854 660C538.854 654.401 538.881 652.12 539.461 650.336C540.687 646.562 543.646 643.604 547.419 642.378C549.204 641.798 551.484 641.771 557.083 641.771H569.27L567.35 643.372C566.421 644.145 566.296 645.524 567.069 646.452C567.843 647.381 569.222 647.506 570.15 646.733L574.259 643.308C575.38 642.374 575.995 641.064 576.084 639.73C576.179 638.322 575.69 636.868 574.601 635.778L571.026 632.203Z" fill="black"/>
<path d="M584.7 648.984C584.327 647.835 583.093 647.206 581.944 647.58C580.795 647.953 580.166 649.187 580.539 650.336C581.119 652.12 581.146 654.401 581.146 660C581.146 665.599 581.119 667.88 580.539 669.664C579.313 673.438 576.354 676.396 572.58 677.622C570.796 678.202 568.516 678.229 562.917 678.229H557.083C554.262 678.229 552.284 678.223 550.785 678.141L552.797 676.13C553.651 675.276 553.651 673.891 552.797 673.037C551.942 672.182 550.557 672.182 549.703 673.037L546.128 676.611C545.346 677.394 544.87 678.37 544.702 679.382C544.418 681.094 545.015 682.93 546.47 684.142L550.579 687.566C551.507 688.339 552.886 688.214 553.66 687.286C554.433 686.358 554.308 684.978 553.38 684.205L551.392 682.549C552.878 682.605 554.591 682.605 556.629 682.604H563.389C568.365 682.605 571.402 682.605 573.932 681.783C579.038 680.124 583.041 676.121 584.7 671.016C585.522 668.486 585.522 665.449 585.521 660.472V659.528C585.522 654.551 585.522 651.514 584.7 648.984Z" fill="black"/>
</g>
</g>
</g>
</g>
<defs>
<clipPath id="clip0_224_1249">
<rect width="3300" height="2200" fill="white"/>
</clipPath>
</defs>
</svg>
